<svg width="94" height="94" viewBox="0 0 94 94" version="1.1" xmlns="http://www.w3.org/2000/svg" xmlns:xlink="http://www.w3.org/1999/xlink">
<g id="Canvas" fill="none">
<g id="Union" opacity="0.7">
<path fill-rule="evenodd" clip-rule="evenodd" d="M 88.4435 45.1007L 47.9288 4.58606C 47.1481 3.80481 45.8815 3.80481 45.1007 4.58606L 36.2555 13.4313L 43.6163 20.8878C 44.2018 20.6476 44.8429 20.5148 45.5148 20.5148C 48.276 20.5148 50.5148 22.7535 50.5148 25.5148C 50.5148 25.7994 50.4908 26.0782 50.4454 26.3497C 50.3795 26.7413 50.2682 27.1173 50.1168 27.4728L 64.1617 41.6998C 64.5919 41.5792 65.046 41.5148 65.5148 41.5148C 68.276 41.5148 70.5148 43.7535 70.5148 46.5148C 70.5148 49.276 68.276 51.5148 65.5148 51.5148C 62.7535 51.5148 60.5148 49.276 60.5148 46.5148C 60.5148 45.6989 60.7101 44.9288 61.0568 44.2487L 47.7325 30.7511L 47.7325 60.0323C 49.3815 60.8497 50.5148 62.5499 50.5148 64.5148C 50.5148 67.276 48.276 69.5148 45.5148 69.5148C 42.7535 69.5148 40.5148 67.276 40.5148 64.5148C 40.5148 62.3815 41.8512 60.5602 43.7325 59.8419L 43.7325 30.1876C 41.8512 29.4694 40.5148 27.6481 40.5148 25.5148C 40.5148 25.1495 40.5538 24.7936 40.6281 24.4508C 40.6793 24.214 40.7477 23.9835 40.8312 23.7604L 33.4269 16.2599L 4.58606 45.1007C 3.80481 45.8815 3.80481 47.1481 4.58606 47.9288L 45.1007 88.4435C 45.8815 89.2247 47.1481 89.2247 47.9288 88.4435L 88.4435 47.9288C 89.2247 47.1481 89.2247 45.8815 88.4435 45.1007ZM 50.7574 1.75745C 48.4142 -0.585815 44.6154 -0.585815 42.2721 1.75745L 1.75745 42.2721C -0.585815 44.6154 -0.585815 48.4142 1.75745 50.7574L 42.2721 91.2721C 44.6154 93.6154 48.4142 93.6154 50.7574 91.2721L 91.2721 50.7574C 93.6154 48.4142 93.6154 44.6154 91.2721 42.2721L 50.7574 1.75745Z" fill="black"/>
</g>
</g>
</svg>

