<svg width="289" height="82" viewBox="0 0 289 82" version="1.1" xmlns="http://www.w3.org/2000/svg" xmlns:xlink="http://www.w3.org/1999/xlink">
<g id="Canvas" fill="none">
<rect width="289" height="82" fill="#F0F0F0"/>
<g id="Rectangle">
<rect width="289" height="82" fill="#F0F0F0"/>
</g>
<g id="DEV_GEAKS">
<path d="M 28.176 23.736C 28.176 22.232 27.632 20.856 26.544 19.608C 25.456 18.36 24.08 17.128 22.416 15.912C 19.344 13.736 15.84 11.784 11.904 10.056C 11.456 12.776 10.816 16.856 9.984 22.296C 9.76 23.736 9.376 26.136 8.832 29.496C 8.32 32.856 7.824 35.848 7.344 38.472C 10.224 37.32 12.72 36.264 14.832 35.304C 16.944 34.312 18.96 33.24 20.88 32.088C 22.992 30.872 24.736 29.608 26.112 28.296C 27.488 26.984 28.176 25.464 28.176 23.736ZM 28.176 14.472C 31.504 17.096 33.168 19.832 33.168 22.68C 33.168 23.096 33.12 23.544 33.024 24.024C 32.64 25.976 31.664 27.72 30.096 29.256C 28.528 30.792 26.56 32.312 24.192 33.816C 17.952 37.752 10.288 41.16 1.2 44.04C 0.784 44.168 0.368 44.232 -0.048 44.232C -0.528 44.232 -0.896 44.136 -1.152 43.944C -1.44 43.72 -1.584 43.448 -1.584 43.128C -1.584 42.808 -1.424 42.488 -1.104 42.168C -0.816 41.816 -0.384 41.528 0.192 41.304L 2.256 40.488C 2.032 40.264 1.968 40.008 2.064 39.72L 4.368 25.752C 5.264 19.928 6.224 14.12 7.248 8.328L 7.296 8.088C 6.592 7.768 5.504 7.32 4.032 6.744C 3.584 6.552 3.36 6.296 3.36 5.976C 3.36 5.496 3.792 5 4.656 4.488C 5.552 3.944 6.384 3.672 7.152 3.672C 7.472 3.672 7.696 3.704 7.824 3.768C 12.528 5.688 16.432 7.416 19.536 8.952C 22.672 10.488 25.552 12.328 28.176 14.472ZM 62.7101 5.544C 63.4461 5.672 63.8141 5.944 63.8141 6.36C 63.8141 6.68 63.5901 7.048 63.1421 7.464C 62.6941 7.848 62.1661 8.168 61.5581 8.424C 60.9821 8.68 60.4861 8.776 60.0701 8.712C 58.5341 8.488 56.9021 8.376 55.1741 8.376C 52.1341 8.376 48.6621 8.808 44.7581 9.672C 43.5741 13.64 42.4061 17.992 41.2541 22.728C 44.9661 21.896 48.2301 21.48 51.0461 21.48C 51.8461 21.48 52.4541 21.496 52.8701 21.528C 53.5421 21.56 53.8781 21.864 53.8781 22.44C 53.8781 23.08 53.5261 23.592 52.8221 23.976C 52.1501 24.36 51.4461 24.568 50.7101 24.6C 47.2861 24.888 43.8781 25.368 40.4861 26.04C 39.5581 29.944 38.6781 34.2 37.8461 38.808C 41.3661 38.648 44.5501 38.568 47.3981 38.568C 51.1741 38.568 54.6461 38.744 57.8141 39.096C 58.4861 39.192 58.8221 39.512 58.8221 40.056C 58.8221 40.344 58.7261 40.664 58.5341 41.016C 58.2141 41.496 57.7181 41.848 57.0461 42.072C 56.4061 42.264 55.7661 42.328 55.1261 42.264C 53.2701 42.104 51.0461 42.024 48.4541 42.024C 46.3101 42.024 44.1501 42.072 41.9741 42.168C 39.7981 42.232 38.1661 42.264 37.0781 42.264C 36.7581 42.712 36.2141 43.096 35.4461 43.416C 34.7101 43.736 34.0221 43.896 33.3821 43.896C 32.9021 43.896 32.5341 43.8 32.2781 43.608C 32.0221 43.416 31.9261 43.144 31.9901 42.792C 31.9901 42.696 32.0221 42.52 32.0861 42.264L 31.9901 42.264C 30.9341 42.264 30.4061 41.992 30.4061 41.448C 30.4061 41.096 30.6301 40.712 31.0781 40.296C 31.5261 39.88 32.0381 39.544 32.6141 39.288C 33.6061 33.88 34.6301 28.888 35.6861 24.312C 36.7421 19.704 37.9741 15.272 39.3821 11.016L 38.9981 11.064C 38.6141 11.064 38.3101 10.968 38.0861 10.776C 37.8941 10.584 37.7981 10.344 37.7981 10.056C 37.7981 9.672 37.9581 9.288 38.2781 8.904C 38.5981 8.52 39.0301 8.232 39.5741 8.04L 40.4861 7.752L 40.7261 7.128C 40.8861 6.648 41.3181 6.248 42.0221 5.928C 42.7261 5.576 43.4301 5.4 44.1341 5.4C 45.0621 5.4 45.5741 5.704 45.6701 6.312C 49.4781 5.416 53.0141 4.968 56.2781 4.968C 58.4541 4.968 60.5981 5.16 62.7101 5.544ZM 86.2466 5.592C 86.6306 5.848 86.8226 6.184 86.8226 6.6C 86.8226 7.048 86.5666 7.48 86.0546 7.896C 84.3586 9.24 82.9826 10.984 81.9266 13.128C 80.8706 15.24 79.7666 17.912 78.6146 21.144L 78.1826 22.344C 77.1266 25.192 76.1186 28.216 75.1586 31.416C 74.1986 34.616 73.6386 36.504 73.4786 37.08C 72.9346 38.968 72.4386 40.632 71.9906 42.072C 71.8626 42.488 71.3826 42.92 70.5506 43.368C 69.7506 43.784 68.9986 43.992 68.2946 43.992C 67.4946 43.992 67.0306 43.688 66.9026 43.08C 65.1426 34.376 64.2626 25.56 64.2626 16.632C 64.2626 13.656 64.3586 10.68 64.5506 7.704C 64.5826 7.128 64.9986 6.616 65.7986 6.168C 66.6306 5.72 67.4466 5.496 68.2466 5.496C 68.6946 5.496 69.0466 5.592 69.3026 5.784C 69.5906 5.976 69.7186 6.248 69.6866 6.6C 69.5266 9.896 69.4466 12.856 69.4466 15.48C 69.4466 20.984 69.7346 26.088 70.3106 30.792C 71.8466 26.056 73.0146 22.648 73.8146 20.568C 74.7746 18.136 75.5906 16.168 76.2626 14.664C 76.9346 13.128 77.7986 11.608 78.8546 10.104C 79.9106 8.568 81.1426 7.32 82.5506 6.36C 83.5746 5.656 84.4866 5.304 85.2866 5.304C 85.6386 5.304 85.9586 5.4 86.2466 5.592ZM 91.2052 43.896C 90.5012 43.8 90.1492 43.56 90.1492 43.176C 90.1492 42.728 90.5332 42.216 91.3013 41.64C 92.0692 41.064 92.7253 40.792 93.2693 40.824L 97.3972 40.968C 102.837 41.16 106.901 41.32 109.589 41.448C 110.581 41.48 111.077 41.752 111.077 42.264C 111.077 42.68 110.741 43.144 110.069 43.656C 109.397 44.168 108.757 44.456 108.149 44.52C 106.709 44.648 105.061 44.712 103.205 44.712C 99.6212 44.712 95.6212 44.44 91.2052 43.896ZM 142.019 26.136C 142.146 26.104 142.37 26.088 142.691 26.088C 143.171 26.088 143.571 26.184 143.891 26.376C 144.21 26.536 144.354 26.824 144.323 27.24C 144.035 29.576 143.795 31.624 143.603 33.384C 143.443 35.144 143.299 36.6 143.171 37.752L 142.594 43.272C 142.531 43.848 142.099 44.36 141.298 44.808C 140.53 45.224 139.762 45.432 138.995 45.432C 138.547 45.432 138.194 45.336 137.938 45.144C 137.682 44.952 137.57 44.664 137.602 44.28C 137.763 42.744 138.067 39.928 138.515 35.832C 138.995 31.704 139.219 29.656 139.187 29.688C 138.451 32.248 137.475 34.504 136.258 36.456C 135.043 38.408 133.458 39.944 131.506 41.064C 130.642 41.576 129.683 41.976 128.627 42.264C 127.57 42.52 126.498 42.648 125.41 42.648C 123.106 42.648 121.186 42.024 119.65 40.776C 117.571 39.048 116.531 36.76 116.531 33.912C 116.531 30.68 117.651 27.16 119.891 23.352C 122.162 19.544 124.595 16.2 127.187 13.32C 129.17 11.08 131.058 9.224 132.851 7.752C 134.643 6.248 136.562 5.208 138.61 4.632C 139.346 4.44 139.986 4.344 140.531 4.344C 141.747 4.344 142.658 4.712 143.266 5.448C 143.906 6.184 144.226 7.208 144.226 8.52C 144.226 9.16 144.194 9.64 144.13 9.96C 144.034 10.536 143.57 11.032 142.739 11.448C 141.938 11.864 141.154 12.072 140.386 12.072C 139.938 12.072 139.586 11.992 139.33 11.832C 139.106 11.64 139.026 11.368 139.09 11.016C 139.186 10.44 139.234 9.976 139.234 9.624C 139.234 8.824 139.01 8.2 138.562 7.752C 137.41 8.488 136.754 8.92 136.594 9.048C 133.075 11.64 129.715 15.448 126.514 20.472C 125.106 22.68 123.97 24.776 123.107 26.76C 122.242 28.744 121.81 30.696 121.81 32.616C 121.81 33.832 122.066 35.016 122.578 36.168C 123.122 37.32 123.907 38.136 124.931 38.616C 125.73 39 126.466 39.192 127.138 39.192C 128.834 39.192 130.259 38.312 131.411 36.552C 132.562 34.76 133.474 32.712 134.146 30.408C 132.738 30.6 131.682 30.728 130.979 30.792L 130.498 30.84C 129.794 30.84 129.443 30.616 129.443 30.168C 129.443 29.752 129.731 29.272 130.307 28.728C 130.882 28.184 131.442 27.864 131.987 27.768C 135.091 27.192 138.435 26.648 142.019 26.136ZM 177.085 5.544C 177.821 5.672 178.189 5.944 178.189 6.36C 178.189 6.68 177.965 7.048 177.517 7.464C 177.069 7.848 176.541 8.168 175.933 8.424C 175.357 8.68 174.861 8.776 174.445 8.712C 172.909 8.488 171.277 8.376 169.549 8.376C 166.509 8.376 163.037 8.808 159.133 9.672C 157.949 13.64 156.781 17.992 155.629 22.728C 159.341 21.896 162.605 21.48 165.421 21.48C 166.221 21.48 166.829 21.496 167.245 21.528C 167.917 21.56 168.253 21.864 168.253 22.44C 168.253 23.08 167.901 23.592 167.197 23.976C 166.525 24.36 165.821 24.568 165.085 24.6C 161.661 24.888 158.253 25.368 154.861 26.04C 153.933 29.944 153.053 34.2 152.221 38.808C 155.741 38.648 158.925 38.568 161.773 38.568C 165.549 38.568 169.021 38.744 172.189 39.096C 172.861 39.192 173.197 39.512 173.197 40.056C 173.197 40.344 173.101 40.664 172.909 41.016C 172.589 41.496 172.093 41.848 171.421 42.072C 170.781 42.264 170.141 42.328 169.501 42.264C 167.645 42.104 165.421 42.024 162.829 42.024C 160.685 42.024 158.525 42.072 156.349 42.168C 154.173 42.232 152.541 42.264 151.453 42.264C 151.133 42.712 150.589 43.096 149.821 43.416C 149.085 43.736 148.397 43.896 147.757 43.896C 147.277 43.896 146.909 43.8 146.653 43.608C 146.397 43.416 146.301 43.144 146.365 42.792C 146.365 42.696 146.397 42.52 146.461 42.264L 146.365 42.264C 145.309 42.264 144.781 41.992 144.781 41.448C 144.781 41.096 145.005 40.712 145.453 40.296C 145.901 39.88 146.413 39.544 146.989 39.288C 147.981 33.88 149.005 28.888 150.061 24.312C 151.117 19.704 152.349 15.272 153.757 11.016L 153.373 11.064C 152.989 11.064 152.685 10.968 152.461 10.776C 152.269 10.584 152.173 10.344 152.173 10.056C 152.173 9.672 152.333 9.288 152.653 8.904C 152.973 8.52 153.405 8.232 153.949 8.04L 154.861 7.752L 155.101 7.128C 155.261 6.648 155.693 6.248 156.397 5.928C 157.101 5.576 157.805 5.4 158.509 5.4C 159.437 5.4 159.949 5.704 160.045 6.312C 163.853 5.416 167.389 4.968 170.653 4.968C 172.829 4.968 174.973 5.16 177.085 5.544ZM 187.721 25.608C 189.961 25.288 192.025 25.128 193.913 25.128L 193.433 13.944C 192.665 15.32 191.577 17.528 190.169 20.568C 188.953 23.16 188.137 24.84 187.721 25.608ZM 202.073 42.792C 202.201 43.272 202.073 43.736 201.689 44.184C 201.305 44.6 200.777 44.936 200.105 45.192C 199.465 45.48 198.857 45.624 198.281 45.624C 197.353 45.624 196.825 45.336 196.697 44.76C 195.545 40.184 194.697 34.744 194.153 28.44C 191.273 28.408 188.409 28.68 185.561 29.256C 182.553 34.28 179.753 38.904 177.161 43.128C 176.905 43.576 176.377 43.96 175.577 44.28C 174.745 44.568 173.977 44.712 173.273 44.712C 172.377 44.712 171.929 44.472 171.929 43.992C 171.929 43.8 171.993 43.592 172.121 43.368C 174.681 38.888 177.049 34.792 179.225 31.08L 178.409 31.368C 177.897 31.56 177.433 31.656 177.017 31.656C 176.601 31.656 176.281 31.56 176.057 31.368C 175.801 31.176 175.673 30.936 175.673 30.648C 175.673 30.328 175.833 30.008 176.153 29.688C 176.441 29.336 176.873 29.032 177.449 28.776C 178.953 28.104 180.297 27.576 181.481 27.192C 183.209 24.216 185.049 20.84 187.001 17.064C 189.241 12.744 191.129 9.368 192.665 6.936C 192.761 6.808 192.889 6.68 193.049 6.552L 193.001 6.312C 193.001 5.736 193.401 5.224 194.201 4.776C 195.033 4.296 195.865 4.056 196.697 4.056C 197.721 4.056 198.249 4.44 198.281 5.208L 198.425 8.424C 198.713 16.136 199.081 22.632 199.529 27.912C 200.009 33.16 200.857 38.12 202.073 42.792ZM 228.305 6.696C 228.529 6.504 228.865 6.344 229.313 6.216C 229.793 6.088 230.273 6.024 230.753 6.024C 231.233 6.024 231.633 6.088 231.953 6.216C 232.273 6.344 232.433 6.536 232.433 6.792C 232.433 7.016 232.273 7.288 231.953 7.608L 213.041 25.992L 212.417 26.52C 216.961 24.184 220.481 23.016 222.977 23.016C 225.249 23.016 226.657 23.992 227.201 25.944C 227.361 26.68 227.441 27.336 227.441 27.912C 227.441 28.744 227.345 29.592 227.153 30.456C 226.961 31.288 226.689 32.264 226.337 33.384C 225.921 34.824 225.633 35.912 225.473 36.648C 225.313 37.352 225.233 38.12 225.233 38.952C 225.233 39.24 225.265 39.64 225.329 40.152C 225.809 40.184 226.193 40.28 226.481 40.44C 226.801 40.6 226.961 40.808 226.961 41.064C 226.961 41.416 226.657 41.848 226.049 42.36L 224.849 43.368C 224.593 43.592 224.177 43.816 223.601 44.04C 223.025 44.264 222.481 44.376 221.969 44.376C 221.233 44.376 220.753 44.088 220.529 43.512C 220.177 42.552 220.001 41.48 220.001 40.296C 220.001 39.368 220.081 38.44 220.241 37.512C 220.433 36.552 220.705 35.368 221.057 33.96C 221.505 32.36 221.809 30.984 221.969 29.832C 222.065 28.968 222.113 28.488 222.113 28.392C 222.113 27.848 222.001 27.432 221.777 27.144C 221.585 26.824 221.217 26.664 220.673 26.664C 220.033 26.664 219.265 26.872 218.369 27.288C 217.505 27.704 216.977 27.96 216.785 28.056C 215.409 28.632 213.633 29.496 211.457 30.648C 210.657 34.552 209.825 38.232 208.961 41.688C 208.833 42.264 208.337 42.76 207.473 43.176C 206.609 43.592 205.793 43.8 205.025 43.8C 204.577 43.8 204.225 43.72 203.969 43.56C 203.745 43.368 203.681 43.096 203.777 42.744C 203.905 42.2 203.985 41.832 204.017 41.64C 204.209 40.808 204.529 39.416 204.977 37.464C 205.425 35.48 205.809 33.72 206.129 32.184C 205.585 31.96 205.313 31.64 205.313 31.224C 205.313 30.744 205.745 30.248 206.609 29.736C 208.273 21.192 209.105 13.464 209.105 6.552C 209.105 6.008 209.505 5.512 210.305 5.064C 211.137 4.584 211.953 4.344 212.753 4.344C 213.201 4.344 213.553 4.44 213.809 4.632C 214.097 4.824 214.241 5.096 214.241 5.448C 214.273 10.312 213.905 15.496 213.137 21C 217.681 16.424 222.737 11.656 228.305 6.696ZM 257.604 26.808C 259.62 28.568 260.628 30.376 260.628 32.232C 260.628 33.448 260.212 34.664 259.38 35.88C 256.436 40.104 252.98 42.712 249.012 43.704C 247.988 43.96 246.836 44.088 245.556 44.088C 242.548 44.088 239.668 43.336 236.916 41.832C 235.604 41.128 234.692 40.216 234.18 39.096C 233.668 37.976 233.412 36.648 233.412 35.112C 233.412 34.024 233.54 32.456 233.796 30.408C 233.892 29.864 234.34 29.592 235.14 29.592C 236.036 29.592 236.948 29.88 237.876 30.456C 238.804 31.032 239.22 31.672 239.124 32.376C 239.092 32.632 239.012 33.208 238.884 34.104C 238.756 34.968 238.692 35.768 238.692 36.504C 238.692 38.168 239.092 39.288 239.892 39.864C 240.692 40.44 241.732 40.728 243.012 40.728C 244.292 40.728 245.62 40.456 246.996 39.912C 248.052 39.496 249.22 38.808 250.5 37.848C 251.812 36.888 252.916 35.8 253.812 34.584C 254.74 33.368 255.204 32.184 255.204 31.032C 255.204 30.104 254.884 29.256 254.244 28.488C 253.604 27.752 252.692 27.048 251.508 26.376C 250.356 25.704 248.82 24.92 246.9 24.024C 244.532 22.904 242.628 21.928 241.188 21.096C 239.78 20.232 238.564 19.224 237.54 18.072C 236.516 16.888 236.004 15.56 236.004 14.088C 236.004 13.416 236.084 12.824 236.244 12.312C 237.012 9.432 238.9 7.368 241.908 6.12C 244.948 4.84 248.228 4.2 251.748 4.2C 253.284 4.2 254.628 4.296 255.78 4.488C 256.932 4.68 257.892 5.096 258.66 5.736C 259.524 6.44 259.956 7.432 259.956 8.712C 259.956 9.48 259.828 10.248 259.572 11.016C 259.348 11.752 258.996 12.76 258.516 14.04C 258.164 14.904 257.956 15.432 257.892 15.624C 257.7 16.168 257.172 16.44 256.308 16.44C 255.444 16.44 254.596 16.2 253.764 15.72C 252.932 15.24 252.516 14.696 252.516 14.088C 252.516 13.928 252.532 13.8 252.564 13.704L 253.284 11.64C 253.604 10.744 253.828 10.072 253.956 9.624L 254.292 7.608C 250.26 7.544 247.044 8.36 244.644 10.056C 243.684 10.696 242.932 11.448 242.388 12.312C 241.876 13.144 241.62 13.992 241.62 14.856C 241.62 16.36 242.372 17.656 243.876 18.744C 244.964 19.512 246.164 20.232 247.476 20.904C 248.82 21.576 249.636 21.992 249.924 22.152C 251.78 23.08 253.268 23.864 254.388 24.504C 255.54 25.144 256.612 25.912 257.604 26.808Z" transform="translate(10 12)" fill="black"/>
</g>
</g>
</svg>

