<svg width="14" height="14" viewBox="0 0 14 14" version="1.1" xmlns="http://www.w3.org/2000/svg" xmlns:xlink="http://www.w3.org/1999/xlink">
<g id="Canvas" fill="none">
<g id="Vector">
<path d="M 13.4706 0.250947C 13.136 -0.0836494 12.5994 -0.0836494 12.2648 0.250947L 6.8608 5.65499L 1.45676 0.250947C 1.12216 -0.0836494 0.585543 -0.0836494 0.250947 0.250947C -0.0836494 0.585543 -0.0836494 1.12216 0.250947 1.45676L 5.65499 6.8608L 0.250947 12.2648C -0.0836494 12.5994 -0.0836494 13.136 0.250947 13.4706C 0.415088 13.6348 0.636048 13.7232 0.850694 13.7232C 1.06534 13.7232 1.2863 13.6411 1.45044 13.4706L 6.85448 8.0666L 12.2585 13.4706C 12.4227 13.6348 12.6436 13.7232 12.8583 13.7232C 13.0792 13.7232 13.2939 13.6411 13.458 13.4706C 13.7926 13.136 13.7926 12.5994 13.458 12.2648L 8.0666 6.8608L 13.4706 1.45676C 13.8052 1.12216 13.8052 0.585543 13.4706 0.250947Z" transform="translate(0.140625 0.139648)" fill="#ffffff"/>
</g>
</g>
</svg>

