<svg width="312" height="296" viewBox="0 0 312 296" fill="none" xmlns="http://www.w3.org/2000/svg">
<path d="M16.3383 136.79C13.5833 132.23 11.5408 127.67 10.2108 123.11C8.97576 118.455 8.35826 113.848 8.35826 109.287C8.35826 100.738 10.4483 92.5675 14.6283 84.7775C18.9033 76.8925 24.8408 69.6725 32.4408 63.1175L40.2783 67.9625C41.0383 68.4375 41.5133 68.96 41.7033 69.53C41.9883 70.1 42.1308 70.67 42.1308 71.24C42.1308 72.57 41.6558 73.71 40.7058 74.66C39.1858 76.56 37.7133 78.555 36.2883 80.645C34.8633 82.735 33.5808 84.9675 32.4408 87.3425C31.3008 89.6225 30.3983 92.045 29.7333 94.61C29.0683 97.175 28.7358 99.8825 28.7358 102.732C28.7358 105.772 29.1633 108.908 30.0183 112.138C30.9683 115.368 32.5358 118.787 34.7208 122.397C35.3858 123.442 35.7183 124.535 35.7183 125.675C35.7183 127.955 34.4358 129.57 31.8708 130.52L16.3383 136.79ZM59.6583 136.79C56.9033 132.23 54.8608 127.67 53.5308 123.11C52.2958 118.455 51.6783 113.848 51.6783 109.287C51.6783 100.738 53.7683 92.5675 57.9483 84.7775C62.2233 76.8925 68.1608 69.6725 75.7608 63.1175L83.5983 67.9625C84.3583 68.4375 84.8333 68.96 85.0233 69.53C85.3083 70.1 85.4508 70.67 85.4508 71.24C85.4508 72.57 84.9758 73.71 84.0258 74.66C82.5058 76.56 81.0333 78.555 79.6083 80.645C78.1833 82.735 76.9008 84.9675 75.7608 87.3425C74.6208 89.6225 73.7183 92.045 73.0533 94.61C72.3883 97.175 72.0558 99.8825 72.0558 102.732C72.0558 105.772 72.4833 108.908 73.3383 112.138C74.2883 115.368 75.8558 118.787 78.0408 122.397C78.7058 123.442 79.0383 124.535 79.0383 125.675C79.0383 127.955 77.7558 129.57 75.1908 130.52L59.6583 136.79Z" transform="translate(-32 -252) scale(4)" fill="#3D3D3D" fill-opacity="0.2"/>
</svg>
