<svg width="312" height="296" viewBox="0 0 312 296" fill="none" xmlns="http://www.w3.org/2000/svg">
<path d="M38.7108 66.11C41.4658 70.67 43.4608 75.23 44.6958 79.79C45.9308 84.35 46.5483 88.91 46.5483 93.47C46.5483 102.115 44.4108 110.38 40.1358 118.265C35.9558 126.055 30.1133 133.228 22.6083 139.783L14.7708 134.938C14.0108 134.463 13.4883 133.94 13.2033 133.37C13.0133 132.8 12.9183 132.23 12.9183 131.66C12.9183 130.33 13.3933 129.19 14.3433 128.24C15.8633 126.435 17.3358 124.488 18.7608 122.397C20.1858 120.212 21.4683 117.98 22.6083 115.7C23.7483 113.325 24.6508 110.855 25.3158 108.29C25.9808 105.725 26.3133 103.018 26.3133 100.167C26.3133 97.1275 25.8383 93.9925 24.8883 90.7625C24.0333 87.5325 22.5133 84.1125 20.3283 80.5025C19.6633 79.4575 19.3308 78.4125 19.3308 77.3675C19.3308 75.0875 20.6133 73.425 23.1783 72.38L38.7108 66.11ZM82.0308 66.11C84.7858 70.67 86.7808 75.23 88.0158 79.79C89.2508 84.35 89.8683 88.91 89.8683 93.47C89.8683 102.115 87.7308 110.38 83.4558 118.265C79.2758 126.055 73.4333 133.228 65.9283 139.783L58.0908 134.938C57.3308 134.463 56.8083 133.94 56.5233 133.37C56.3333 132.8 56.2383 132.23 56.2383 131.66C56.2383 130.33 56.7133 129.19 57.6633 128.24C59.1833 126.435 60.6558 124.488 62.0808 122.397C63.5058 120.212 64.7883 117.98 65.9283 115.7C67.0683 113.325 67.9708 110.855 68.6358 108.29C69.3008 105.725 69.6333 103.018 69.6333 100.167C69.6333 97.1275 69.1583 93.9925 68.2083 90.7625C67.3533 87.5325 65.8333 84.1125 63.6483 80.5025C62.9833 79.4575 62.6508 78.4125 62.6508 77.3675C62.6508 75.0875 63.9333 73.425 66.4983 72.38L82.0308 66.11Z" transform="translate(-48 -264) scale(4)" fill="#3D3D3D" fill-opacity="0.2"/>
</svg>
